<?xml version="1.0"?>
<svg xmlns="http://www.w3.org/2000/svg" id="outline" viewBox="0 0 512 512" width="512" height="512"><path d="M335.0293,27.71582l.00049.001A39.734,39.734,0,0,0,306.74512,16H104A40.04552,40.04552,0,0,0,64,56V456a40.04552,40.04552,0,0,0,40,40H408a40.04552,40.04552,0,0,0,40-40V157.25488a39.74371,39.74371,0,0,0-11.71582-28.28515ZM420.687,136H352a24.02718,24.02718,0,0,1-24-24V43.31445ZM150.65625,179.5625A7.99943,7.99943,0,0,0,144,176H120V152h52.68652l8.91059,8.91089-22.21656,31.738ZM316.686,152H299.314l18.79371-18.7937a40.3053,40.3053,0,0,0,8.06713,9.30493ZM280,376H232v-.8916l24-20.57129,24,20.57129ZM256,152H240V136h32v16Zm-16-32V104h32v16Zm48,20.686v-20.6858l11.82043,8.86548ZM272,88H240V72h32Zm-48,52.686-11.82043-11.82032L224,120.00024ZM212.68616,152H195.314l-13.65722-13.65723A8.00035,8.00035,0,0,0,176,136H120V120h60.68652ZM196.165,168H248v24h-7.0293a48.65034,48.65034,0,0,0-34.62744,14.34277A32.75533,32.75533,0,0,1,183.0293,216H176v16h7.0293a48.65034,48.65034,0,0,0,34.62744-14.34277A32.75533,32.75533,0,0,1,240.9707,208H248v24h-7.0293a48.65034,48.65034,0,0,0-34.62744,14.34277A32.75533,32.75533,0,0,1,183.0293,256H168v16h15.0293a48.65034,48.65034,0,0,0,34.62744-14.34277A32.75533,32.75533,0,0,1,240.9707,248H248v24h-7.0293a48.65034,48.65034,0,0,0-34.62744,14.34277A32.75533,32.75533,0,0,1,183.0293,296H160v16h23.0293a48.65034,48.65034,0,0,0,34.62744-14.34277A32.75533,32.75533,0,0,1,240.9707,288H248v24h-7.0293a48.65034,48.65034,0,0,0-34.62744,14.34277A32.75533,32.75533,0,0,1,183.0293,336H144V242.52148ZM144,352h39.0293a48.65034,48.65034,0,0,0,34.62744-14.34277A32.75533,32.75533,0,0,1,240.9707,328H248v12.32031L197.04053,384H144Zm88,72h48v16H232Zm48-16H232V392h48Zm-16-67.67969V328h7.0293a32.75533,32.75533,0,0,1,23.314,9.65723A48.65034,48.65034,0,0,0,328.9707,352H368v32H314.95947ZM368,336H328.9707a32.75533,32.75533,0,0,1-23.314-9.65723A48.65034,48.65034,0,0,0,271.0293,312H264V288h7.0293a32.75533,32.75533,0,0,1,23.314,9.65723A48.65034,48.65034,0,0,0,328.9707,312H352V296H328.9707a32.75533,32.75533,0,0,1-23.314-9.65723A48.65034,48.65034,0,0,0,271.0293,272H264V248h7.0293a32.75533,32.75533,0,0,1,23.314,9.65723A48.65034,48.65034,0,0,0,328.9707,272H344V256H328.9707a32.75533,32.75533,0,0,1-23.314-9.65723A48.65034,48.65034,0,0,0,271.0293,232H264V208h7.0293a32.75533,32.75533,0,0,1,23.314,9.65723A48.65034,48.65034,0,0,0,328.9707,232H336V216h-7.0293a32.75533,32.75533,0,0,1-23.314-9.65723A48.65034,48.65034,0,0,0,271.0293,192H264V168h51.835L368,242.52148ZM352.61938,192.64893l-22.21655-31.738L339.31348,152H392v24H368a7.99943,7.99943,0,0,0-6.65625,3.5625ZM432,456a24.0275,24.0275,0,0,1-24,24H104a24.0275,24.0275,0,0,1-24-24V56a24.0275,24.0275,0,0,1,24-24H306.74512A24.20388,24.20388,0,0,1,312,32.58081V112a40.2183,40.2183,0,0,0,.25159,4.43457l-1.00232,1.0022L288,99.99976V64a8.00008,8.00008,0,0,0-8-8H232a8.00008,8.00008,0,0,0-8,8V99.99976l-23.24933,17.437-11.09393-11.094A8.00035,8.00035,0,0,0,184,104H112a8.00008,8.00008,0,0,0-8,8v72a8.00008,8.00008,0,0,0,8,8h27.71875l9.81268,14.719-20.08514,28.69312A7.99931,7.99931,0,0,0,128,240V392a8.00008,8.00008,0,0,0,8,8h64a8.0042,8.0042,0,0,0,5.20654-1.92578L216,388.82275V448a8.00008,8.00008,0,0,0,8,8h64a8.00008,8.00008,0,0,0,8-8V388.82275l10.79346,9.25147A8.0042,8.0042,0,0,0,312,400h64a8.00008,8.00008,0,0,0,8-8V240a7.99931,7.99931,0,0,0-1.44629-4.58789L362.46851,206.719,372.28125,192H400a8.00008,8.00008,0,0,0,8-8V152H431.419A24.18915,24.18915,0,0,1,432,157.25488Z"/></svg>
